<mxfile host="Electron" modified="2024-06-13T14:18:55.655Z" agent="Mozilla/5.0 (Windows NT 10.0; Win64; x64) AppleWebKit/537.36 (KHTML, like Gecko) draw.io/22.0.3 Chrome/114.0.5735.289 Electron/25.8.4 Safari/537.36" etag="Ea5aqu3pHKSSKYEVketE" version="22.0.3" type="device">
  <diagram name="Pagina-1" id="roAnTeUhXp8pRatpKY-_">
    <mxGraphModel dx="1104" dy="1685" grid="1" gridSize="10" guides="1" tooltips="1" connect="1" arrows="1" fold="1" page="1" pageScale="1" pageWidth="827" pageHeight="1169" math="0" shadow="0">
      <root>
        <mxCell id="0" />
        <mxCell id="1" parent="0" />
        <mxCell id="Tia9OGl4X41H1kTfzJGt-1" value="Zone protejate" style="rounded=0;whiteSpace=wrap;html=1;" parent="1" vertex="1">
          <mxGeometry x="100" y="-80" width="120" height="60" as="geometry" />
        </mxCell>
        <mxCell id="Tia9OGl4X41H1kTfzJGt-2" value="Cai de acces" style="rounded=0;whiteSpace=wrap;html=1;" parent="1" vertex="1">
          <mxGeometry x="110" y="110" width="120" height="60" as="geometry" />
        </mxCell>
        <mxCell id="Tia9OGl4X41H1kTfzJGt-3" value="Puncte interes" style="rounded=0;whiteSpace=wrap;html=1;" parent="1" vertex="1">
          <mxGeometry x="100" y="20" width="120" height="60" as="geometry" />
        </mxCell>
        <mxCell id="Tia9OGl4X41H1kTfzJGt-4" value="Trasee turistice" style="rounded=0;whiteSpace=wrap;html=1;" parent="1" vertex="1">
          <mxGeometry x="180" y="260" width="120" height="60" as="geometry" />
        </mxCell>
        <mxCell id="Tia9OGl4X41H1kTfzJGt-5" value="Facilitati turistice" style="rounded=0;whiteSpace=wrap;html=1;" parent="1" vertex="1">
          <mxGeometry x="400" y="310" width="120" height="60" as="geometry" />
        </mxCell>
        <mxCell id="Tia9OGl4X41H1kTfzJGt-7" value="" style="edgeStyle=entityRelationEdgeStyle;fontSize=12;html=1;endArrow=ERoneToMany;rounded=0;entryX=1;entryY=0;entryDx=0;entryDy=0;exitX=1;exitY=0;exitDx=0;exitDy=0;" parent="1" source="Tia9OGl4X41H1kTfzJGt-1" target="Tia9OGl4X41H1kTfzJGt-3" edge="1">
          <mxGeometry width="100" height="100" relative="1" as="geometry">
            <mxPoint x="300" y="260" as="sourcePoint" />
            <mxPoint x="400" y="160" as="targetPoint" />
          </mxGeometry>
        </mxCell>
        <mxCell id="Tia9OGl4X41H1kTfzJGt-8" value="" style="edgeStyle=entityRelationEdgeStyle;fontSize=12;html=1;endArrow=ERoneToMany;rounded=0;entryX=0;entryY=1;entryDx=0;entryDy=0;exitX=0;exitY=0;exitDx=0;exitDy=0;" parent="1" source="Tia9OGl4X41H1kTfzJGt-4" target="Tia9OGl4X41H1kTfzJGt-2" edge="1">
          <mxGeometry width="100" height="100" relative="1" as="geometry">
            <mxPoint x="70" y="250" as="sourcePoint" />
            <mxPoint x="70" y="170" as="targetPoint" />
            <Array as="points">
              <mxPoint x="120" y="230" />
            </Array>
          </mxGeometry>
        </mxCell>
        <mxCell id="Tia9OGl4X41H1kTfzJGt-9" value="" style="edgeStyle=entityRelationEdgeStyle;fontSize=12;html=1;endArrow=ERoneToMany;rounded=0;entryX=0;entryY=0.5;entryDx=0;entryDy=0;exitX=1;exitY=0.5;exitDx=0;exitDy=0;" parent="1" source="Tia9OGl4X41H1kTfzJGt-4" target="Tia9OGl4X41H1kTfzJGt-5" edge="1">
          <mxGeometry width="100" height="100" relative="1" as="geometry">
            <mxPoint x="230" y="250" as="sourcePoint" />
            <mxPoint x="400" y="210" as="targetPoint" />
          </mxGeometry>
        </mxCell>
        <mxCell id="cxfNUdtjXlV29bgN2fLc-2" value="" style="edgeStyle=entityRelationEdgeStyle;fontSize=12;html=1;endArrow=ERoneToMany;rounded=0;entryX=1;entryY=1;entryDx=0;entryDy=0;exitX=1;exitY=0;exitDx=0;exitDy=0;" edge="1" parent="1" source="Tia9OGl4X41H1kTfzJGt-4" target="Tia9OGl4X41H1kTfzJGt-3">
          <mxGeometry width="100" height="100" relative="1" as="geometry">
            <mxPoint x="360" y="220" as="sourcePoint" />
            <mxPoint x="460" y="120" as="targetPoint" />
          </mxGeometry>
        </mxCell>
      </root>
    </mxGraphModel>
  </diagram>
</mxfile>
